<svg width="46" height="38" viewBox="0 0 46 38" fill="none" xmlns="http://www.w3.org/2000/svg">
<g clip-path="url(#clip0_2031_313)">
<path d="M36.8807 35.0288C36.8807 36.6698 35.5077 38 33.814 38C32.1203 38 30.7473 36.6698 30.7473 35.0288C30.7473 33.3879 32.1203 32.0576 33.814 32.0576C35.5077 32.0576 36.8807 33.3879 36.8807 35.0288Z" fill="#8F87AB"/>
<path d="M9.92631 37.6872V10.7902H14.1228L23 30.4938L31.8772 10.7902H36.0737V30.8065H31.5544V22.6749L24.7754 37.6872H21.3859L14.7684 23.144V37.6872H9.92631Z" fill="#8F87AB"/>
<path d="M7.66665 10.7902C7.66665 1.72028 38.3333 1.72015 38.3333 10.7902V22.9876H42.8526C47.0491 21.5802 47.0491 12.823 42.8526 11.4156H42.6912V10.7902C42.5298 -3.59671 3.14739 -3.59676 3.14735 10.7902L3.14737 11.4156C-1.04912 12.823 -1.04912 21.5802 3.14737 22.9876H7.66669L7.66665 10.7902Z" fill="#8F87AB"/>
</g>
<defs>
<clipPath id="clip0_2031_313">
<rect width="46" height="38" fill="white"/>
</clipPath>
</defs>
</svg>
